<svg width="16" height="16" viewBox="0 0 16 16" fill="none" xmlns="http://www.w3.org/2000/svg">
<path d="M5.33333 9.33301C5.14444 9.33301 4.98622 9.26901 4.85867 9.14101C4.73111 9.01301 4.66711 8.85479 4.66667 8.66634C4.66622 8.4779 4.73022 8.31967 4.85867 8.19167C4.98711 8.06367 5.14533 7.99967 5.33333 7.99967C5.52133 7.99967 5.67978 8.06367 5.80867 8.19167C5.93756 8.31967 6.00133 8.4779 6 8.66634C5.99867 8.85479 5.93467 9.01323 5.808 9.14167C5.68133 9.27012 5.52311 9.3339 5.33333 9.33301ZM8 9.33301C7.81111 9.33301 7.65289 9.26901 7.52533 9.14101C7.39778 9.01301 7.33378 8.85479 7.33333 8.66634C7.33289 8.4779 7.39689 8.31967 7.52533 8.19167C7.65378 8.06367 7.812 7.99967 8 7.99967C8.188 7.99967 8.34644 8.06367 8.47533 8.19167C8.60422 8.31967 8.668 8.4779 8.66667 8.66634C8.66533 8.85479 8.60133 9.01323 8.47467 9.14167C8.348 9.27012 8.18978 9.3339 8 9.33301ZM10.6667 9.33301C10.4778 9.33301 10.3196 9.26901 10.192 9.14101C10.0644 9.01301 10.0004 8.85479 10 8.66634C9.99956 8.4779 10.0636 8.31967 10.192 8.19167C10.3204 8.06367 10.4787 7.99967 10.6667 7.99967C10.8547 7.99967 11.0131 8.06367 11.142 8.19167C11.2709 8.31967 11.3347 8.4779 11.3333 8.66634C11.332 8.85479 11.268 9.01323 11.1413 9.14167C11.0147 9.27012 10.8564 9.3339 10.6667 9.33301ZM3.33333 14.6663C2.96667 14.6663 2.65289 14.5359 2.392 14.275C2.13111 14.0141 2.00044 13.7001 2 13.333V3.99967C2 3.63301 2.13067 3.31923 2.392 3.05834C2.65333 2.79745 2.96711 2.66679 3.33333 2.66634H4V1.33301H5.33333V2.66634H10.6667V1.33301H12V2.66634H12.6667C13.0333 2.66634 13.3473 2.79701 13.6087 3.05834C13.87 3.31967 14.0004 3.63345 14 3.99967V13.333C14 13.6997 13.8696 14.0137 13.6087 14.275C13.3478 14.5363 13.0338 14.6668 12.6667 14.6663H3.33333ZM3.33333 13.333H12.6667V6.66634H3.33333V13.333Z" fill="black" style="fill:black;fill-opacity:1;"/>
</svg>
