<svg width="16" height="16" viewBox="0 0 16 16" fill="none" xmlns="http://www.w3.org/2000/svg">
<path d="M4.66669 14.6663C4.30002 14.6663 3.98624 14.5359 3.72536 14.275C3.46447 14.0141 3.3338 13.7001 3.33336 13.333C3.33291 12.9659 3.46358 12.6521 3.72536 12.3917C3.98713 12.1312 4.30091 12.0006 4.66669 11.9997C5.03247 11.9988 5.34647 12.1295 5.60869 12.3917C5.87091 12.6539 6.00136 12.9677 6.00002 13.333C5.99869 13.6983 5.86825 14.0123 5.60869 14.275C5.34913 14.5377 5.03513 14.6681 4.66669 14.6663ZM11.3334 14.6663C10.9667 14.6663 10.6529 14.5359 10.392 14.275C10.1311 14.0141 10.0005 13.7001 10 13.333C9.99958 12.9659 10.1302 12.6521 10.392 12.3917C10.6538 12.1312 10.9676 12.0006 11.3334 11.9997C11.6991 11.9988 12.0131 12.1295 12.2754 12.3917C12.5376 12.6539 12.668 12.9677 12.6667 13.333C12.6654 13.6983 12.5349 14.0123 12.2754 14.275C12.0158 14.5377 11.7018 14.6681 11.3334 14.6663ZM3.46669 2.66634H13.3C13.5556 2.66634 13.75 2.78034 13.8834 3.00834C14.0167 3.23634 14.0222 3.46679 13.9 3.69967L11.5334 7.96634C11.4111 8.18856 11.2474 8.36079 11.042 8.48301C10.8367 8.60523 10.6116 8.66634 10.3667 8.66634H5.40002L4.66669 9.99967H12C12.1889 9.99967 12.3474 10.0637 12.4754 10.1917C12.6034 10.3197 12.6671 10.4779 12.6667 10.6663C12.6662 10.8548 12.6022 11.0132 12.4747 11.1417C12.3471 11.2701 12.1889 11.3339 12 11.333H4.66669C4.16669 11.333 3.78891 11.1137 3.53336 10.675C3.2778 10.2363 3.26669 9.80012 3.50002 9.36634L4.40002 7.73301L2.00002 2.66634H1.33336C1.14447 2.66634 0.986245 2.60234 0.858689 2.47434C0.731134 2.34634 0.667134 2.18812 0.666689 1.99967C0.666245 1.81123 0.730245 1.65301 0.858689 1.52501C0.987134 1.39701 1.14536 1.33301 1.33336 1.33301H2.41669C2.53891 1.33301 2.65558 1.36634 2.76669 1.43301C2.8778 1.49967 2.96113 1.59412 3.01669 1.71634L3.46669 2.66634Z" fill="black" style="fill:black;fill-opacity:1;"/>
</svg>
