<svg width="16" height="16" viewBox="0 0 16 16" fill="none" xmlns="http://www.w3.org/2000/svg">
<path d="M0.666656 10.0003C0.666656 8.78921 1.17221 7.81988 2.18332 7.09232C3.19443 6.36477 4.35555 6.00077 5.66666 6.00033C6.97777 5.99988 8.13888 6.36388 9.14999 7.09232C10.1611 7.82077 10.6667 8.7901 10.6667 10.0003H0.666656ZM0.666656 12.667V11.3337H10.6667V12.667H0.666656ZM1.33332 15.3337C1.14443 15.3337 0.986212 15.2697 0.858656 15.1417C0.731101 15.0137 0.667101 14.8554 0.666656 14.667V14.0003H10.6667V14.667C10.6667 14.8559 10.6027 15.0143 10.4747 15.1423C10.3467 15.2703 10.1884 15.3341 9.99999 15.3337H1.33332ZM12 15.3337V10.0003C12 8.73366 11.5667 7.63921 10.7 6.71699C9.83332 5.79477 8.77221 5.1781 7.51666 4.86699L7.33332 3.33366H10.6667V0.666992H12V3.33366H15.3333L14.25 14.1337C14.2167 14.4781 14.0749 14.7643 13.8247 14.9923C13.5744 15.2203 13.2773 15.3341 12.9333 15.3337H12Z" fill="black" style="fill:black;fill-opacity:1;"/>
</svg>
